# xmcd
#
# Track frame offsets:
# 151
# 11590
# 28505
# 41750
# 53753
# 67652
# 78611
# 91400
# 103215
# 113224
# 122767
# 135190
# 148869
# 161278
# 175025
#
# Disc length: 2498 seconds
#
#
# Revision: 0
# Processed by: cddbd v1.5.1PL2 Copyright (c) Steve Scherf et al.
# Submitted via: FreeRIP 2.945 
#
DISCID=bd09c00f
DTITLE=Memphis Slim - Slim's Blues
DYEAR=1960
DGENRE=Blues
TTITLE0=Lonesome
TTITLE1=Cold Blooded Woman
TTITLE2=One Mad's Mad
TTITLE3=Let The Good Times Roll Creole
TTITLE4=What Is The Mare Rack?
TTITLE5=Pigalle Love
TTITLE6=Four Walls
TTITLE7=It's Been Too Long
TTITLE8=Big Bertha
TTITLE9=I'm Lost Without You
TTITLE10=I'll Just Keep On Singin' The Blues
TTITLE11=True Love
TTITLE12=Trouble Trouble
TTITLE13=Slim's Blues
TTITLE14=Mother Earth
EXTD=
EXTT0=
EXTT1=
EXTT2=
EXTT3=
EXTT4=
EXTT5=
EXTT6=
EXTT7=
EXTT8=
EXTT9=
EXTT10=
EXTT11=
EXTT12=
EXTT13=
EXTT14=
PLAYORDER=
